<?xml version="1.0" encoding="utf-8" standalone="no"?>
<!DOCTYPE svg PUBLIC "-//W3C//DTD SVG 1.1//EN"
  "http://www.w3.org/Graphics/SVG/1.1/DTD/svg11.dtd">
<svg xmlns:xlink="http://www.w3.org/1999/xlink" width="864pt" height="540pt" viewBox="0 0 864 540" xmlns="http://www.w3.org/2000/svg" version="1.1">
 <metadata>
  <rdf:RDF xmlns:dc="http://purl.org/dc/elements/1.1/" xmlns:cc="http://creativecommons.org/ns#" xmlns:rdf="http://www.w3.org/1999/02/22-rdf-syntax-ns#">
   <cc:Work>
    <dc:type rdf:resource="http://purl.org/dc/dcmitype/StillImage"/>
    <dc:date>2023-04-08T10:44:40.392813</dc:date>
    <dc:format>image/svg+xml</dc:format>
    <dc:creator>
     <cc:Agent>
      <dc:title>Matplotlib v3.7.0, https://matplotlib.org/</dc:title>
     </cc:Agent>
    </dc:creator>
   </cc:Work>
  </rdf:RDF>
 </metadata>
 <defs>
  <style type="text/css">*{stroke-linejoin: round; stroke-linecap: butt}</style>
 </defs>
 <g id="figure_1">
  <g id="patch_1">
   <path d="M 0 540 
L 864 540 
L 864 0 
L 0 0 
z
" style="fill: #ffffff"/>
  </g>
  <g id="axes_1">
   <g id="patch_2">
    <path d="M 108 111 
L 777.6 111 
L 777.6 64.8 
L 108 64.8 
z
" style="fill: #ffffff"/>
   </g>
   <g id="matplotlib.axis_1">
    <g id="xtick_1">
     <g id="line2d_1">
      <defs>
       <path id="mfd6a6e47ce" d="M 0 0 
L 0 3.5 
" style="stroke: #000000; stroke-width: 0.8"/>
      </defs>
      <g>
       <use xlink:href="#mfd6a6e47ce" x="138.436364" y="111" style="stroke: #000000; stroke-width: 0.8"/>
      </g>
     </g>
     <g id="text_1">
      <!-- 0 -->
      <g transform="translate(135.255114 125.598437) scale(0.1 -0.1)">
       <defs>
        <path id="DejaVuSans-30" d="M 2034 4250 
Q 1547 4250 1301 3770 
Q 1056 3291 1056 2328 
Q 1056 1369 1301 889 
Q 1547 409 2034 409 
Q 2525 409 2770 889 
Q 3016 1369 3016 2328 
Q 3016 3291 2770 3770 
Q 2525 4250 2034 4250 
z
M 2034 4750 
Q 2819 4750 3233 4129 
Q 3647 3509 3647 2328 
Q 3647 1150 3233 529 
Q 2819 -91 2034 -91 
Q 1250 -91 836 529 
Q 422 1150 422 2328 
Q 422 3509 836 4129 
Q 1250 4750 2034 4750 
z
" transform="scale(0.015625)"/>
       </defs>
       <use xlink:href="#DejaVuSans-30"/>
      </g>
     </g>
    </g>
    <g id="xtick_2">
     <g id="line2d_2">
      <g>
       <use xlink:href="#mfd6a6e47ce" x="248.853065" y="111" style="stroke: #000000; stroke-width: 0.8"/>
      </g>
     </g>
     <g id="text_2">
      <!-- 1000 -->
      <g transform="translate(236.128065 125.598437) scale(0.1 -0.1)">
       <defs>
        <path id="DejaVuSans-31" d="M 794 531 
L 1825 531 
L 1825 4091 
L 703 3866 
L 703 4441 
L 1819 4666 
L 2450 4666 
L 2450 531 
L 3481 531 
L 3481 0 
L 794 0 
L 794 531 
z
" transform="scale(0.015625)"/>
       </defs>
       <use xlink:href="#DejaVuSans-31"/>
       <use xlink:href="#DejaVuSans-30" x="63.623047"/>
       <use xlink:href="#DejaVuSans-30" x="127.246094"/>
       <use xlink:href="#DejaVuSans-30" x="190.869141"/>
      </g>
     </g>
    </g>
    <g id="xtick_3">
     <g id="line2d_3">
      <g>
       <use xlink:href="#mfd6a6e47ce" x="359.269766" y="111" style="stroke: #000000; stroke-width: 0.8"/>
      </g>
     </g>
     <g id="text_3">
      <!-- 2000 -->
      <g transform="translate(346.544766 125.598437) scale(0.1 -0.1)">
       <defs>
        <path id="DejaVuSans-32" d="M 1228 531 
L 3431 531 
L 3431 0 
L 469 0 
L 469 531 
Q 828 903 1448 1529 
Q 2069 2156 2228 2338 
Q 2531 2678 2651 2914 
Q 2772 3150 2772 3378 
Q 2772 3750 2511 3984 
Q 2250 4219 1831 4219 
Q 1534 4219 1204 4116 
Q 875 4013 500 3803 
L 500 4441 
Q 881 4594 1212 4672 
Q 1544 4750 1819 4750 
Q 2544 4750 2975 4387 
Q 3406 4025 3406 3419 
Q 3406 3131 3298 2873 
Q 3191 2616 2906 2266 
Q 2828 2175 2409 1742 
Q 1991 1309 1228 531 
z
" transform="scale(0.015625)"/>
       </defs>
       <use xlink:href="#DejaVuSans-32"/>
       <use xlink:href="#DejaVuSans-30" x="63.623047"/>
       <use xlink:href="#DejaVuSans-30" x="127.246094"/>
       <use xlink:href="#DejaVuSans-30" x="190.869141"/>
      </g>
     </g>
    </g>
    <g id="xtick_4">
     <g id="line2d_4">
      <g>
       <use xlink:href="#mfd6a6e47ce" x="469.686467" y="111" style="stroke: #000000; stroke-width: 0.8"/>
      </g>
     </g>
     <g id="text_4">
      <!-- 3000 -->
      <g transform="translate(456.961467 125.598437) scale(0.1 -0.1)">
       <defs>
        <path id="DejaVuSans-33" d="M 2597 2516 
Q 3050 2419 3304 2112 
Q 3559 1806 3559 1356 
Q 3559 666 3084 287 
Q 2609 -91 1734 -91 
Q 1441 -91 1130 -33 
Q 819 25 488 141 
L 488 750 
Q 750 597 1062 519 
Q 1375 441 1716 441 
Q 2309 441 2620 675 
Q 2931 909 2931 1356 
Q 2931 1769 2642 2001 
Q 2353 2234 1838 2234 
L 1294 2234 
L 1294 2753 
L 1863 2753 
Q 2328 2753 2575 2939 
Q 2822 3125 2822 3475 
Q 2822 3834 2567 4026 
Q 2313 4219 1838 4219 
Q 1578 4219 1281 4162 
Q 984 4106 628 3988 
L 628 4550 
Q 988 4650 1302 4700 
Q 1616 4750 1894 4750 
Q 2613 4750 3031 4423 
Q 3450 4097 3450 3541 
Q 3450 3153 3228 2886 
Q 3006 2619 2597 2516 
z
" transform="scale(0.015625)"/>
       </defs>
       <use xlink:href="#DejaVuSans-33"/>
       <use xlink:href="#DejaVuSans-30" x="63.623047"/>
       <use xlink:href="#DejaVuSans-30" x="127.246094"/>
       <use xlink:href="#DejaVuSans-30" x="190.869141"/>
      </g>
     </g>
    </g>
    <g id="xtick_5">
     <g id="line2d_5">
      <g>
       <use xlink:href="#mfd6a6e47ce" x="580.103168" y="111" style="stroke: #000000; stroke-width: 0.8"/>
      </g>
     </g>
     <g id="text_5">
      <!-- 4000 -->
      <g transform="translate(567.378168 125.598437) scale(0.1 -0.1)">
       <defs>
        <path id="DejaVuSans-34" d="M 2419 4116 
L 825 1625 
L 2419 1625 
L 2419 4116 
z
M 2253 4666 
L 3047 4666 
L 3047 1625 
L 3713 1625 
L 3713 1100 
L 3047 1100 
L 3047 0 
L 2419 0 
L 2419 1100 
L 313 1100 
L 313 1709 
L 2253 4666 
z
" transform="scale(0.015625)"/>
       </defs>
       <use xlink:href="#DejaVuSans-34"/>
       <use xlink:href="#DejaVuSans-30" x="63.623047"/>
       <use xlink:href="#DejaVuSans-30" x="127.246094"/>
       <use xlink:href="#DejaVuSans-30" x="190.869141"/>
      </g>
     </g>
    </g>
    <g id="xtick_6">
     <g id="line2d_6">
      <g>
       <use xlink:href="#mfd6a6e47ce" x="690.519869" y="111" style="stroke: #000000; stroke-width: 0.8"/>
      </g>
     </g>
     <g id="text_6">
      <!-- 5000 -->
      <g transform="translate(677.794869 125.598437) scale(0.1 -0.1)">
       <defs>
        <path id="DejaVuSans-35" d="M 691 4666 
L 3169 4666 
L 3169 4134 
L 1269 4134 
L 1269 2991 
Q 1406 3038 1543 3061 
Q 1681 3084 1819 3084 
Q 2600 3084 3056 2656 
Q 3513 2228 3513 1497 
Q 3513 744 3044 326 
Q 2575 -91 1722 -91 
Q 1428 -91 1123 -41 
Q 819 9 494 109 
L 494 744 
Q 775 591 1075 516 
Q 1375 441 1709 441 
Q 2250 441 2565 725 
Q 2881 1009 2881 1497 
Q 2881 1984 2565 2268 
Q 2250 2553 1709 2553 
Q 1456 2553 1204 2497 
Q 953 2441 691 2322 
L 691 4666 
z
" transform="scale(0.015625)"/>
       </defs>
       <use xlink:href="#DejaVuSans-35"/>
       <use xlink:href="#DejaVuSans-30" x="63.623047"/>
       <use xlink:href="#DejaVuSans-30" x="127.246094"/>
       <use xlink:href="#DejaVuSans-30" x="190.869141"/>
      </g>
     </g>
    </g>
   </g>
   <g id="matplotlib.axis_2">
    <g id="ytick_1">
     <g id="line2d_7">
      <defs>
       <path id="m7518915891" d="M 0 0 
L -3.5 0 
" style="stroke: #000000; stroke-width: 0.8"/>
      </defs>
      <g>
       <use xlink:href="#m7518915891" x="108" y="90.775139" style="stroke: #000000; stroke-width: 0.8"/>
      </g>
     </g>
     <g id="text_7">
      <!-- −2.5 -->
      <g transform="translate(76.717187 94.574358) scale(0.1 -0.1)">
       <defs>
        <path id="DejaVuSans-2212" d="M 678 2272 
L 4684 2272 
L 4684 1741 
L 678 1741 
L 678 2272 
z
" transform="scale(0.015625)"/>
        <path id="DejaVuSans-2e" d="M 684 794 
L 1344 794 
L 1344 0 
L 684 0 
L 684 794 
z
" transform="scale(0.015625)"/>
       </defs>
       <use xlink:href="#DejaVuSans-2212"/>
       <use xlink:href="#DejaVuSans-32" x="83.789062"/>
       <use xlink:href="#DejaVuSans-2e" x="147.412109"/>
       <use xlink:href="#DejaVuSans-35" x="179.199219"/>
      </g>
     </g>
    </g>
    <g id="ytick_2">
     <g id="line2d_8">
      <g>
       <use xlink:href="#m7518915891" x="108" y="66.9" style="stroke: #000000; stroke-width: 0.8"/>
      </g>
     </g>
     <g id="text_8">
      <!-- 0.0 -->
      <g transform="translate(85.096875 70.699219) scale(0.1 -0.1)">
       <use xlink:href="#DejaVuSans-30"/>
       <use xlink:href="#DejaVuSans-2e" x="63.623047"/>
       <use xlink:href="#DejaVuSans-30" x="95.410156"/>
      </g>
     </g>
    </g>
   </g>
   <g id="line2d_9">
    <path d="M 138.436364 66.9 
L 150.250951 66.9 
L 150.471784 77.4 
L 156.765536 77.4 
L 156.986369 66.9 
L 174.653042 66.9 
L 174.873875 77.4 
L 180.72596 77.4 
L 180.946794 66.9 
L 235.161394 66.9 
L 235.382227 87.9 
L 240.130145 87.9 
L 240.350979 98.399999 
L 242.780146 98.399999 
L 243.00098 108.9 
L 244.878063 108.9 
L 245.098897 87.9 
L 246.975981 87.9 
L 247.196814 77.4 
L 249.073898 77.4 
L 249.294731 87.9 
L 250.950982 87.9 
L 251.171815 77.4 
L 251.392649 77.4 
L 251.613482 87.9 
L 255.0364 87.9 
L 255.257233 77.4 
L 256.03015 77.4 
L 256.250984 66.9 
L 285.732243 66.9 
L 285.953076 87.9 
L 291.584328 87.9 
L 291.805161 66.9 
L 296.663496 66.9 
L 296.88433 77.4 
L 301.963498 77.4 
L 302.184331 66.9 
L 320.182254 66.9 
L 320.403087 77.4 
L 327.580172 77.4 
L 327.801006 66.9 
L 332.880174 66.9 
L 333.101008 77.4 
L 339.284343 77.4 
L 339.505176 66.9 
L 384.55519 66.9 
L 384.776024 77.4 
L 390.296859 77.4 
L 390.517692 66.9 
L 411.055198 66.9 
L 411.276032 77.4 
L 417.901034 77.4 
L 418.121867 66.9 
L 488.457306 66.9 
L 488.678139 77.4 
L 498.063559 77.4 
L 498.284392 66.9 
L 518.159398 66.9 
L 518.380232 77.4 
L 521.471899 77.4 
L 521.692733 66.9 
L 521.913566 66.9 
L 522.1344 77.4 
L 525.005234 77.4 
L 525.226067 66.9 
L 536.709404 66.9 
L 536.930238 77.4 
L 543.88649 77.4 
L 544.107323 66.9 
L 552.057326 66.9 
L 552.278159 77.4 
L 560.117745 77.4 
L 560.338578 66.9 
L 581.649002 66.9 
L 581.869835 77.4 
L 589.378171 77.4 
L 589.599004 66.9 
L 595.451089 66.9 
L 595.671923 77.4 
L 603.401092 77.4 
L 603.621925 66.9 
L 638.292769 66.9 
L 638.513603 98.399999 
L 643.703188 98.399999 
L 643.924021 66.9 
L 646.574022 66.9 
L 646.794855 77.4 
L 650.65944 77.4 
L 650.880273 66.9 
L 668.767779 66.9 
L 668.988612 77.4 
L 674.951114 77.4 
L 675.171947 66.9 
L 697.034454 66.9 
L 697.255288 77.4 
L 699.684455 77.4 
L 699.905288 87.9 
L 701.009455 87.9 
L 701.230289 98.399999 
L 705.757373 98.399999 
L 706.088624 77.4 
L 706.19904 77.4 
L 706.419874 66.9 
L 726.736547 66.9 
L 726.95738 77.4 
L 732.699049 77.4 
L 732.919882 87.9 
L 734.024049 87.9 
L 734.244882 98.399999 
L 734.465716 87.9 
L 736.784466 87.9 
L 737.0053 77.4 
L 737.557383 77.4 
L 737.778217 66.9 
L 747.163636 66.9 
L 747.163636 66.9 
" clip-path="url(#p7137ec3366)" style="fill: none; stroke: #1f77b4; stroke-width: 1.5; stroke-linecap: square"/>
   </g>
   <g id="patch_3">
    <path d="M 108 111 
L 108 64.8 
" style="fill: none; stroke: #000000; stroke-width: 0.8; stroke-linejoin: miter; stroke-linecap: square"/>
   </g>
   <g id="patch_4">
    <path d="M 777.6 111 
L 777.6 64.8 
" style="fill: none; stroke: #000000; stroke-width: 0.8; stroke-linejoin: miter; stroke-linecap: square"/>
   </g>
   <g id="patch_5">
    <path d="M 108 111 
L 777.6 111 
" style="fill: none; stroke: #000000; stroke-width: 0.8; stroke-linejoin: miter; stroke-linecap: square"/>
   </g>
   <g id="patch_6">
    <path d="M 108 64.8 
L 777.6 64.8 
" style="fill: none; stroke: #000000; stroke-width: 0.8; stroke-linejoin: miter; stroke-linecap: square"/>
   </g>
   <g id="text_9">
    <!-- chr22:35738735-35744249:- -->
    <g transform="translate(356.145 58.8) scale(0.12 -0.12)">
     <defs>
      <path id="DejaVuSans-63" d="M 3122 3366 
L 3122 2828 
Q 2878 2963 2633 3030 
Q 2388 3097 2138 3097 
Q 1578 3097 1268 2742 
Q 959 2388 959 1747 
Q 959 1106 1268 751 
Q 1578 397 2138 397 
Q 2388 397 2633 464 
Q 2878 531 3122 666 
L 3122 134 
Q 2881 22 2623 -34 
Q 2366 -91 2075 -91 
Q 1284 -91 818 406 
Q 353 903 353 1747 
Q 353 2603 823 3093 
Q 1294 3584 2113 3584 
Q 2378 3584 2631 3529 
Q 2884 3475 3122 3366 
z
" transform="scale(0.015625)"/>
      <path id="DejaVuSans-68" d="M 3513 2113 
L 3513 0 
L 2938 0 
L 2938 2094 
Q 2938 2591 2744 2837 
Q 2550 3084 2163 3084 
Q 1697 3084 1428 2787 
Q 1159 2491 1159 1978 
L 1159 0 
L 581 0 
L 581 4863 
L 1159 4863 
L 1159 2956 
Q 1366 3272 1645 3428 
Q 1925 3584 2291 3584 
Q 2894 3584 3203 3211 
Q 3513 2838 3513 2113 
z
" transform="scale(0.015625)"/>
      <path id="DejaVuSans-72" d="M 2631 2963 
Q 2534 3019 2420 3045 
Q 2306 3072 2169 3072 
Q 1681 3072 1420 2755 
Q 1159 2438 1159 1844 
L 1159 0 
L 581 0 
L 581 3500 
L 1159 3500 
L 1159 2956 
Q 1341 3275 1631 3429 
Q 1922 3584 2338 3584 
Q 2397 3584 2469 3576 
Q 2541 3569 2628 3553 
L 2631 2963 
z
" transform="scale(0.015625)"/>
      <path id="DejaVuSans-3a" d="M 750 794 
L 1409 794 
L 1409 0 
L 750 0 
L 750 794 
z
M 750 3309 
L 1409 3309 
L 1409 2516 
L 750 2516 
L 750 3309 
z
" transform="scale(0.015625)"/>
      <path id="DejaVuSans-37" d="M 525 4666 
L 3525 4666 
L 3525 4397 
L 1831 0 
L 1172 0 
L 2766 4134 
L 525 4134 
L 525 4666 
z
" transform="scale(0.015625)"/>
      <path id="DejaVuSans-38" d="M 2034 2216 
Q 1584 2216 1326 1975 
Q 1069 1734 1069 1313 
Q 1069 891 1326 650 
Q 1584 409 2034 409 
Q 2484 409 2743 651 
Q 3003 894 3003 1313 
Q 3003 1734 2745 1975 
Q 2488 2216 2034 2216 
z
M 1403 2484 
Q 997 2584 770 2862 
Q 544 3141 544 3541 
Q 544 4100 942 4425 
Q 1341 4750 2034 4750 
Q 2731 4750 3128 4425 
Q 3525 4100 3525 3541 
Q 3525 3141 3298 2862 
Q 3072 2584 2669 2484 
Q 3125 2378 3379 2068 
Q 3634 1759 3634 1313 
Q 3634 634 3220 271 
Q 2806 -91 2034 -91 
Q 1263 -91 848 271 
Q 434 634 434 1313 
Q 434 1759 690 2068 
Q 947 2378 1403 2484 
z
M 1172 3481 
Q 1172 3119 1398 2916 
Q 1625 2713 2034 2713 
Q 2441 2713 2670 2916 
Q 2900 3119 2900 3481 
Q 2900 3844 2670 4047 
Q 2441 4250 2034 4250 
Q 1625 4250 1398 4047 
Q 1172 3844 1172 3481 
z
" transform="scale(0.015625)"/>
      <path id="DejaVuSans-2d" d="M 313 2009 
L 1997 2009 
L 1997 1497 
L 313 1497 
L 313 2009 
z
" transform="scale(0.015625)"/>
      <path id="DejaVuSans-39" d="M 703 97 
L 703 672 
Q 941 559 1184 500 
Q 1428 441 1663 441 
Q 2288 441 2617 861 
Q 2947 1281 2994 2138 
Q 2813 1869 2534 1725 
Q 2256 1581 1919 1581 
Q 1219 1581 811 2004 
Q 403 2428 403 3163 
Q 403 3881 828 4315 
Q 1253 4750 1959 4750 
Q 2769 4750 3195 4129 
Q 3622 3509 3622 2328 
Q 3622 1225 3098 567 
Q 2575 -91 1691 -91 
Q 1453 -91 1209 -44 
Q 966 3 703 97 
z
M 1959 2075 
Q 2384 2075 2632 2365 
Q 2881 2656 2881 3163 
Q 2881 3666 2632 3958 
Q 2384 4250 1959 4250 
Q 1534 4250 1286 3958 
Q 1038 3666 1038 3163 
Q 1038 2656 1286 2365 
Q 1534 2075 1959 2075 
z
" transform="scale(0.015625)"/>
     </defs>
     <use xlink:href="#DejaVuSans-63"/>
     <use xlink:href="#DejaVuSans-68" x="54.980469"/>
     <use xlink:href="#DejaVuSans-72" x="118.359375"/>
     <use xlink:href="#DejaVuSans-32" x="159.472656"/>
     <use xlink:href="#DejaVuSans-32" x="223.095703"/>
     <use xlink:href="#DejaVuSans-3a" x="286.71875"/>
     <use xlink:href="#DejaVuSans-33" x="320.410156"/>
     <use xlink:href="#DejaVuSans-35" x="384.033203"/>
     <use xlink:href="#DejaVuSans-37" x="447.65625"/>
     <use xlink:href="#DejaVuSans-33" x="511.279297"/>
     <use xlink:href="#DejaVuSans-38" x="574.902344"/>
     <use xlink:href="#DejaVuSans-37" x="638.525391"/>
     <use xlink:href="#DejaVuSans-33" x="702.148438"/>
     <use xlink:href="#DejaVuSans-35" x="765.771484"/>
     <use xlink:href="#DejaVuSans-2d" x="829.394531"/>
     <use xlink:href="#DejaVuSans-33" x="865.478516"/>
     <use xlink:href="#DejaVuSans-35" x="929.101562"/>
     <use xlink:href="#DejaVuSans-37" x="992.724609"/>
     <use xlink:href="#DejaVuSans-34" x="1056.347656"/>
     <use xlink:href="#DejaVuSans-34" x="1119.970703"/>
     <use xlink:href="#DejaVuSans-32" x="1183.59375"/>
     <use xlink:href="#DejaVuSans-34" x="1247.216797"/>
     <use xlink:href="#DejaVuSans-39" x="1310.839844"/>
     <use xlink:href="#DejaVuSans-3a" x="1374.462891"/>
     <use xlink:href="#DejaVuSans-2d" x="1408.154297"/>
    </g>
   </g>
  </g>
  <g id="axes_2">
   <g id="patch_7">
    <path d="M 108 203.4 
L 777.6 203.4 
L 777.6 157.2 
L 108 157.2 
z
" style="fill: #ffffff"/>
   </g>
   <g id="matplotlib.axis_3">
    <g id="xtick_7">
     <g id="line2d_10">
      <g>
       <use xlink:href="#mfd6a6e47ce" x="138.436364" y="203.4" style="stroke: #000000; stroke-width: 0.8"/>
      </g>
     </g>
     <g id="text_10">
      <!-- 0 -->
      <g transform="translate(135.255114 217.998438) scale(0.1 -0.1)">
       <use xlink:href="#DejaVuSans-30"/>
      </g>
     </g>
    </g>
    <g id="xtick_8">
     <g id="line2d_11">
      <g>
       <use xlink:href="#mfd6a6e47ce" x="222.981818" y="203.4" style="stroke: #000000; stroke-width: 0.8"/>
      </g>
     </g>
     <g id="text_11">
      <!-- 10 -->
      <g transform="translate(216.619318 217.998438) scale(0.1 -0.1)">
       <use xlink:href="#DejaVuSans-31"/>
       <use xlink:href="#DejaVuSans-30" x="63.623047"/>
      </g>
     </g>
    </g>
    <g id="xtick_9">
     <g id="line2d_12">
      <g>
       <use xlink:href="#mfd6a6e47ce" x="307.527273" y="203.4" style="stroke: #000000; stroke-width: 0.8"/>
      </g>
     </g>
     <g id="text_12">
      <!-- 20 -->
      <g transform="translate(301.164773 217.998438) scale(0.1 -0.1)">
       <use xlink:href="#DejaVuSans-32"/>
       <use xlink:href="#DejaVuSans-30" x="63.623047"/>
      </g>
     </g>
    </g>
    <g id="xtick_10">
     <g id="line2d_13">
      <g>
       <use xlink:href="#mfd6a6e47ce" x="392.072727" y="203.4" style="stroke: #000000; stroke-width: 0.8"/>
      </g>
     </g>
     <g id="text_13">
      <!-- 30 -->
      <g transform="translate(385.710227 217.998438) scale(0.1 -0.1)">
       <use xlink:href="#DejaVuSans-33"/>
       <use xlink:href="#DejaVuSans-30" x="63.623047"/>
      </g>
     </g>
    </g>
    <g id="xtick_11">
     <g id="line2d_14">
      <g>
       <use xlink:href="#mfd6a6e47ce" x="476.618182" y="203.4" style="stroke: #000000; stroke-width: 0.8"/>
      </g>
     </g>
     <g id="text_14">
      <!-- 40 -->
      <g transform="translate(470.255682 217.998438) scale(0.1 -0.1)">
       <use xlink:href="#DejaVuSans-34"/>
       <use xlink:href="#DejaVuSans-30" x="63.623047"/>
      </g>
     </g>
    </g>
    <g id="xtick_12">
     <g id="line2d_15">
      <g>
       <use xlink:href="#mfd6a6e47ce" x="561.163636" y="203.4" style="stroke: #000000; stroke-width: 0.8"/>
      </g>
     </g>
     <g id="text_15">
      <!-- 50 -->
      <g transform="translate(554.801136 217.998438) scale(0.1 -0.1)">
       <use xlink:href="#DejaVuSans-35"/>
       <use xlink:href="#DejaVuSans-30" x="63.623047"/>
      </g>
     </g>
    </g>
    <g id="xtick_13">
     <g id="line2d_16">
      <g>
       <use xlink:href="#mfd6a6e47ce" x="645.709091" y="203.4" style="stroke: #000000; stroke-width: 0.8"/>
      </g>
     </g>
     <g id="text_16">
      <!-- 60 -->
      <g transform="translate(639.346591 217.998438) scale(0.1 -0.1)">
       <defs>
        <path id="DejaVuSans-36" d="M 2113 2584 
Q 1688 2584 1439 2293 
Q 1191 2003 1191 1497 
Q 1191 994 1439 701 
Q 1688 409 2113 409 
Q 2538 409 2786 701 
Q 3034 994 3034 1497 
Q 3034 2003 2786 2293 
Q 2538 2584 2113 2584 
z
M 3366 4563 
L 3366 3988 
Q 3128 4100 2886 4159 
Q 2644 4219 2406 4219 
Q 1781 4219 1451 3797 
Q 1122 3375 1075 2522 
Q 1259 2794 1537 2939 
Q 1816 3084 2150 3084 
Q 2853 3084 3261 2657 
Q 3669 2231 3669 1497 
Q 3669 778 3244 343 
Q 2819 -91 2113 -91 
Q 1303 -91 875 529 
Q 447 1150 447 2328 
Q 447 3434 972 4092 
Q 1497 4750 2381 4750 
Q 2619 4750 2861 4703 
Q 3103 4656 3366 4563 
z
" transform="scale(0.015625)"/>
       </defs>
       <use xlink:href="#DejaVuSans-36"/>
       <use xlink:href="#DejaVuSans-30" x="63.623047"/>
      </g>
     </g>
    </g>
    <g id="xtick_14">
     <g id="line2d_17">
      <g>
       <use xlink:href="#mfd6a6e47ce" x="730.254545" y="203.4" style="stroke: #000000; stroke-width: 0.8"/>
      </g>
     </g>
     <g id="text_17">
      <!-- 70 -->
      <g transform="translate(723.892045 217.998438) scale(0.1 -0.1)">
       <use xlink:href="#DejaVuSans-37"/>
       <use xlink:href="#DejaVuSans-30" x="63.623047"/>
      </g>
     </g>
    </g>
   </g>
   <g id="matplotlib.axis_4">
    <g id="ytick_3">
     <g id="line2d_18">
      <g>
       <use xlink:href="#m7518915891" x="108" y="197.500223" style="stroke: #000000; stroke-width: 0.8"/>
      </g>
     </g>
     <g id="text_18">
      <!-- −1 -->
      <g transform="translate(86.257812 201.299442) scale(0.1 -0.1)">
       <use xlink:href="#DejaVuSans-2212"/>
       <use xlink:href="#DejaVuSans-31" x="83.789062"/>
      </g>
     </g>
    </g>
    <g id="ytick_4">
     <g id="line2d_19">
      <g>
       <use xlink:href="#m7518915891" x="108" y="159.3" style="stroke: #000000; stroke-width: 0.8"/>
      </g>
     </g>
     <g id="text_19">
      <!-- 0 -->
      <g transform="translate(94.6375 163.099219) scale(0.1 -0.1)">
       <use xlink:href="#DejaVuSans-30"/>
      </g>
     </g>
    </g>
   </g>
   <g id="line2d_20">
    <path d="M 138.436364 201.3 
L 146.890909 201.3 
L 155.345455 201.3 
L 163.8 201.3 
L 172.254545 201.3 
L 180.709091 201.3 
L 189.163636 201.3 
L 197.618182 201.3 
L 206.072727 201.3 
L 214.527273 201.3 
L 222.981818 201.3 
L 231.436364 201.3 
L 239.890909 201.3 
L 248.345455 201.3 
L 256.8 201.3 
L 265.254545 201.3 
L 273.709091 201.3 
L 282.163636 201.3 
L 290.618182 201.3 
L 299.072727 201.3 
L 307.527273 201.3 
L 315.981818 201.3 
L 324.436364 201.3 
L 332.890909 201.3 
L 341.345455 201.3 
L 349.8 201.3 
L 358.254545 201.3 
L 366.709091 201.3 
L 375.163636 201.3 
L 383.618182 201.3 
L 392.072727 201.3 
L 400.527273 201.3 
L 408.981818 201.3 
L 417.436364 201.3 
L 425.890909 201.3 
L 434.345455 201.3 
L 442.8 201.3 
L 451.254545 201.3 
L 459.709091 201.3 
L 468.163636 201.3 
L 476.618182 201.3 
L 485.072727 201.3 
L 493.527273 159.3 
L 501.981818 159.3 
L 510.436364 159.3 
L 518.890909 159.3 
L 527.345455 159.3 
L 535.8 159.3 
L 544.254545 159.3 
L 552.709091 159.3 
L 561.163636 159.3 
L 569.618182 159.3 
L 578.072727 159.3 
L 586.527273 159.3 
L 594.981818 159.3 
L 603.436364 159.3 
L 611.890909 159.3 
L 620.345455 159.3 
L 628.8 159.3 
L 637.254545 159.3 
L 645.709091 159.3 
L 654.163636 159.3 
L 662.618182 159.3 
L 671.072727 159.3 
L 679.527273 159.3 
L 687.981818 159.3 
L 696.436364 159.3 
L 704.890909 159.3 
L 713.345455 159.3 
L 721.8 159.3 
L 730.254545 159.3 
L 738.709091 159.3 
L 747.163636 159.3 
" clip-path="url(#p8eb40448c9)" style="fill: none; stroke: #1f77b4; stroke-width: 1.5; stroke-linecap: square"/>
   </g>
   <g id="patch_8">
    <path d="M 108 203.4 
L 108 157.2 
" style="fill: none; stroke: #000000; stroke-width: 0.8; stroke-linejoin: miter; stroke-linecap: square"/>
   </g>
   <g id="patch_9">
    <path d="M 777.6 203.4 
L 777.6 157.2 
" style="fill: none; stroke: #000000; stroke-width: 0.8; stroke-linejoin: miter; stroke-linecap: square"/>
   </g>
   <g id="patch_10">
    <path d="M 108 203.4 
L 777.6 203.4 
" style="fill: none; stroke: #000000; stroke-width: 0.8; stroke-linejoin: miter; stroke-linecap: square"/>
   </g>
   <g id="patch_11">
    <path d="M 108 157.2 
L 777.6 157.2 
" style="fill: none; stroke: #000000; stroke-width: 0.8; stroke-linejoin: miter; stroke-linecap: square"/>
   </g>
   <g id="text_20">
    <!-- chr22:35745922-35745995:- -->
    <g transform="translate(356.145 151.2) scale(0.12 -0.12)">
     <use xlink:href="#DejaVuSans-63"/>
     <use xlink:href="#DejaVuSans-68" x="54.980469"/>
     <use xlink:href="#DejaVuSans-72" x="118.359375"/>
     <use xlink:href="#DejaVuSans-32" x="159.472656"/>
     <use xlink:href="#DejaVuSans-32" x="223.095703"/>
     <use xlink:href="#DejaVuSans-3a" x="286.71875"/>
     <use xlink:href="#DejaVuSans-33" x="320.410156"/>
     <use xlink:href="#DejaVuSans-35" x="384.033203"/>
     <use xlink:href="#DejaVuSans-37" x="447.65625"/>
     <use xlink:href="#DejaVuSans-34" x="511.279297"/>
     <use xlink:href="#DejaVuSans-35" x="574.902344"/>
     <use xlink:href="#DejaVuSans-39" x="638.525391"/>
     <use xlink:href="#DejaVuSans-32" x="702.148438"/>
     <use xlink:href="#DejaVuSans-32" x="765.771484"/>
     <use xlink:href="#DejaVuSans-2d" x="829.394531"/>
     <use xlink:href="#DejaVuSans-33" x="865.478516"/>
     <use xlink:href="#DejaVuSans-35" x="929.101562"/>
     <use xlink:href="#DejaVuSans-37" x="992.724609"/>
     <use xlink:href="#DejaVuSans-34" x="1056.347656"/>
     <use xlink:href="#DejaVuSans-35" x="1119.970703"/>
     <use xlink:href="#DejaVuSans-39" x="1183.59375"/>
     <use xlink:href="#DejaVuSans-39" x="1247.216797"/>
     <use xlink:href="#DejaVuSans-35" x="1310.839844"/>
     <use xlink:href="#DejaVuSans-3a" x="1374.462891"/>
     <use xlink:href="#DejaVuSans-2d" x="1408.154297"/>
    </g>
   </g>
  </g>
  <g id="axes_3">
   <g id="patch_12">
    <path d="M 108 295.8 
L 777.6 295.8 
L 777.6 249.6 
L 108 249.6 
z
" style="fill: #ffffff"/>
   </g>
   <g id="matplotlib.axis_5">
    <g id="xtick_15">
     <g id="line2d_21">
      <g>
       <use xlink:href="#mfd6a6e47ce" x="138.436364" y="295.8" style="stroke: #000000; stroke-width: 0.8"/>
      </g>
     </g>
     <g id="text_21">
      <!-- 0 -->
      <g transform="translate(135.255114 310.398438) scale(0.1 -0.1)">
       <use xlink:href="#DejaVuSans-30"/>
      </g>
     </g>
    </g>
    <g id="xtick_16">
     <g id="line2d_22">
      <g>
       <use xlink:href="#mfd6a6e47ce" x="218.80701" y="295.8" style="stroke: #000000; stroke-width: 0.8"/>
      </g>
     </g>
     <g id="text_22">
      <!-- 500 -->
      <g transform="translate(209.26326 310.398438) scale(0.1 -0.1)">
       <use xlink:href="#DejaVuSans-35"/>
       <use xlink:href="#DejaVuSans-30" x="63.623047"/>
       <use xlink:href="#DejaVuSans-30" x="127.246094"/>
      </g>
     </g>
    </g>
    <g id="xtick_17">
     <g id="line2d_23">
      <g>
       <use xlink:href="#mfd6a6e47ce" x="299.177656" y="295.8" style="stroke: #000000; stroke-width: 0.8"/>
      </g>
     </g>
     <g id="text_23">
      <!-- 1000 -->
      <g transform="translate(286.452656 310.398438) scale(0.1 -0.1)">
       <use xlink:href="#DejaVuSans-31"/>
       <use xlink:href="#DejaVuSans-30" x="63.623047"/>
       <use xlink:href="#DejaVuSans-30" x="127.246094"/>
       <use xlink:href="#DejaVuSans-30" x="190.869141"/>
      </g>
     </g>
    </g>
    <g id="xtick_18">
     <g id="line2d_24">
      <g>
       <use xlink:href="#mfd6a6e47ce" x="379.548302" y="295.8" style="stroke: #000000; stroke-width: 0.8"/>
      </g>
     </g>
     <g id="text_24">
      <!-- 1500 -->
      <g transform="translate(366.823302 310.398438) scale(0.1 -0.1)">
       <use xlink:href="#DejaVuSans-31"/>
       <use xlink:href="#DejaVuSans-35" x="63.623047"/>
       <use xlink:href="#DejaVuSans-30" x="127.246094"/>
       <use xlink:href="#DejaVuSans-30" x="190.869141"/>
      </g>
     </g>
    </g>
    <g id="xtick_19">
     <g id="line2d_25">
      <g>
       <use xlink:href="#mfd6a6e47ce" x="459.918948" y="295.8" style="stroke: #000000; stroke-width: 0.8"/>
      </g>
     </g>
     <g id="text_25">
      <!-- 2000 -->
      <g transform="translate(447.193948 310.398438) scale(0.1 -0.1)">
       <use xlink:href="#DejaVuSans-32"/>
       <use xlink:href="#DejaVuSans-30" x="63.623047"/>
       <use xlink:href="#DejaVuSans-30" x="127.246094"/>
       <use xlink:href="#DejaVuSans-30" x="190.869141"/>
      </g>
     </g>
    </g>
    <g id="xtick_20">
     <g id="line2d_26">
      <g>
       <use xlink:href="#mfd6a6e47ce" x="540.289594" y="295.8" style="stroke: #000000; stroke-width: 0.8"/>
      </g>
     </g>
     <g id="text_26">
      <!-- 2500 -->
      <g transform="translate(527.564594 310.398438) scale(0.1 -0.1)">
       <use xlink:href="#DejaVuSans-32"/>
       <use xlink:href="#DejaVuSans-35" x="63.623047"/>
       <use xlink:href="#DejaVuSans-30" x="127.246094"/>
       <use xlink:href="#DejaVuSans-30" x="190.869141"/>
      </g>
     </g>
    </g>
    <g id="xtick_21">
     <g id="line2d_27">
      <g>
       <use xlink:href="#mfd6a6e47ce" x="620.66024" y="295.8" style="stroke: #000000; stroke-width: 0.8"/>
      </g>
     </g>
     <g id="text_27">
      <!-- 3000 -->
      <g transform="translate(607.93524 310.398438) scale(0.1 -0.1)">
       <use xlink:href="#DejaVuSans-33"/>
       <use xlink:href="#DejaVuSans-30" x="63.623047"/>
       <use xlink:href="#DejaVuSans-30" x="127.246094"/>
       <use xlink:href="#DejaVuSans-30" x="190.869141"/>
      </g>
     </g>
    </g>
    <g id="xtick_22">
     <g id="line2d_28">
      <g>
       <use xlink:href="#mfd6a6e47ce" x="701.030886" y="295.8" style="stroke: #000000; stroke-width: 0.8"/>
      </g>
     </g>
     <g id="text_28">
      <!-- 3500 -->
      <g transform="translate(688.305886 310.398438) scale(0.1 -0.1)">
       <use xlink:href="#DejaVuSans-33"/>
       <use xlink:href="#DejaVuSans-35" x="63.623047"/>
       <use xlink:href="#DejaVuSans-30" x="127.246094"/>
       <use xlink:href="#DejaVuSans-30" x="190.869141"/>
      </g>
     </g>
    </g>
   </g>
   <g id="matplotlib.axis_6">
    <g id="ytick_5">
     <g id="line2d_29">
      <g>
       <use xlink:href="#m7518915891" x="108" y="289.900223" style="stroke: #000000; stroke-width: 0.8"/>
      </g>
     </g>
     <g id="text_29">
      <!-- −2 -->
      <g transform="translate(86.257812 293.699442) scale(0.1 -0.1)">
       <use xlink:href="#DejaVuSans-2212"/>
       <use xlink:href="#DejaVuSans-32" x="83.789062"/>
      </g>
     </g>
    </g>
    <g id="ytick_6">
     <g id="line2d_30">
      <g>
       <use xlink:href="#m7518915891" x="108" y="251.7" style="stroke: #000000; stroke-width: 0.8"/>
      </g>
     </g>
     <g id="text_30">
      <!-- 0 -->
      <g transform="translate(94.6375 255.499219) scale(0.1 -0.1)">
       <use xlink:href="#DejaVuSans-30"/>
      </g>
     </g>
    </g>
   </g>
   <g id="line2d_31">
    <path d="M 138.436364 251.7 
L 348.364491 251.7 
L 348.525232 272.7 
L 349.168197 272.7 
L 349.328939 293.7 
L 356.240814 293.7 
L 356.401556 272.7 
L 358.008968 272.7 
L 358.16971 251.7 
L 497.210927 251.7 
L 497.371669 272.7 
L 508.7843 272.7 
L 508.945042 251.7 
L 587.708275 251.7 
L 587.869016 272.7 
L 593.33422 272.7 
L 593.494961 251.7 
L 594.298668 251.7 
L 594.459409 272.7 
L 603.460921 272.7 
L 603.621663 251.7 
L 610.372797 251.7 
L 610.694279 293.7 
L 618.731344 293.7 
L 618.892085 272.7 
L 619.213568 272.7 
L 619.374309 251.7 
L 627.572115 251.7 
L 627.732856 272.7 
L 638.502523 272.7 
L 638.663264 251.7 
L 743.948811 251.7 
L 744.109552 272.7 
L 747.163636 272.7 
L 747.163636 272.7 
" clip-path="url(#p29c9a0746e)" style="fill: none; stroke: #1f77b4; stroke-width: 1.5; stroke-linecap: square"/>
   </g>
   <g id="patch_13">
    <path d="M 108 295.8 
L 108 249.6 
" style="fill: none; stroke: #000000; stroke-width: 0.8; stroke-linejoin: miter; stroke-linecap: square"/>
   </g>
   <g id="patch_14">
    <path d="M 777.6 295.8 
L 777.6 249.6 
" style="fill: none; stroke: #000000; stroke-width: 0.8; stroke-linejoin: miter; stroke-linecap: square"/>
   </g>
   <g id="patch_15">
    <path d="M 108 295.8 
L 777.6 295.8 
" style="fill: none; stroke: #000000; stroke-width: 0.8; stroke-linejoin: miter; stroke-linecap: square"/>
   </g>
   <g id="patch_16">
    <path d="M 108 249.6 
L 777.6 249.6 
" style="fill: none; stroke: #000000; stroke-width: 0.8; stroke-linejoin: miter; stroke-linecap: square"/>
   </g>
   <g id="text_31">
    <!-- chr22:35746472-35750260:- -->
    <g transform="translate(356.145 243.6) scale(0.12 -0.12)">
     <use xlink:href="#DejaVuSans-63"/>
     <use xlink:href="#DejaVuSans-68" x="54.980469"/>
     <use xlink:href="#DejaVuSans-72" x="118.359375"/>
     <use xlink:href="#DejaVuSans-32" x="159.472656"/>
     <use xlink:href="#DejaVuSans-32" x="223.095703"/>
     <use xlink:href="#DejaVuSans-3a" x="286.71875"/>
     <use xlink:href="#DejaVuSans-33" x="320.410156"/>
     <use xlink:href="#DejaVuSans-35" x="384.033203"/>
     <use xlink:href="#DejaVuSans-37" x="447.65625"/>
     <use xlink:href="#DejaVuSans-34" x="511.279297"/>
     <use xlink:href="#DejaVuSans-36" x="574.902344"/>
     <use xlink:href="#DejaVuSans-34" x="638.525391"/>
     <use xlink:href="#DejaVuSans-37" x="702.148438"/>
     <use xlink:href="#DejaVuSans-32" x="765.771484"/>
     <use xlink:href="#DejaVuSans-2d" x="829.394531"/>
     <use xlink:href="#DejaVuSans-33" x="865.478516"/>
     <use xlink:href="#DejaVuSans-35" x="929.101562"/>
     <use xlink:href="#DejaVuSans-37" x="992.724609"/>
     <use xlink:href="#DejaVuSans-35" x="1056.347656"/>
     <use xlink:href="#DejaVuSans-30" x="1119.970703"/>
     <use xlink:href="#DejaVuSans-32" x="1183.59375"/>
     <use xlink:href="#DejaVuSans-36" x="1247.216797"/>
     <use xlink:href="#DejaVuSans-30" x="1310.839844"/>
     <use xlink:href="#DejaVuSans-3a" x="1374.462891"/>
     <use xlink:href="#DejaVuSans-2d" x="1408.154297"/>
    </g>
   </g>
  </g>
  <g id="axes_4">
   <g id="patch_17">
    <path d="M 108 388.2 
L 777.6 388.2 
L 777.6 342 
L 108 342 
z
" style="fill: #ffffff"/>
   </g>
   <g id="matplotlib.axis_7">
    <g id="xtick_23">
     <g id="line2d_32">
      <g>
       <use xlink:href="#mfd6a6e47ce" x="138.436364" y="388.2" style="stroke: #000000; stroke-width: 0.8"/>
      </g>
     </g>
     <g id="text_32">
      <!-- 0 -->
      <g transform="translate(135.255114 402.798437) scale(0.1 -0.1)">
       <use xlink:href="#DejaVuSans-30"/>
      </g>
     </g>
    </g>
    <g id="xtick_24">
     <g id="line2d_33">
      <g>
       <use xlink:href="#mfd6a6e47ce" x="236.618182" y="388.2" style="stroke: #000000; stroke-width: 0.8"/>
      </g>
     </g>
     <g id="text_33">
      <!-- 5 -->
      <g transform="translate(233.436932 402.798437) scale(0.1 -0.1)">
       <use xlink:href="#DejaVuSans-35"/>
      </g>
     </g>
    </g>
    <g id="xtick_25">
     <g id="line2d_34">
      <g>
       <use xlink:href="#mfd6a6e47ce" x="334.8" y="388.2" style="stroke: #000000; stroke-width: 0.8"/>
      </g>
     </g>
     <g id="text_34">
      <!-- 10 -->
      <g transform="translate(328.4375 402.798437) scale(0.1 -0.1)">
       <use xlink:href="#DejaVuSans-31"/>
       <use xlink:href="#DejaVuSans-30" x="63.623047"/>
      </g>
     </g>
    </g>
    <g id="xtick_26">
     <g id="line2d_35">
      <g>
       <use xlink:href="#mfd6a6e47ce" x="432.981818" y="388.2" style="stroke: #000000; stroke-width: 0.8"/>
      </g>
     </g>
     <g id="text_35">
      <!-- 15 -->
      <g transform="translate(426.619318 402.798437) scale(0.1 -0.1)">
       <use xlink:href="#DejaVuSans-31"/>
       <use xlink:href="#DejaVuSans-35" x="63.623047"/>
      </g>
     </g>
    </g>
    <g id="xtick_27">
     <g id="line2d_36">
      <g>
       <use xlink:href="#mfd6a6e47ce" x="531.163636" y="388.2" style="stroke: #000000; stroke-width: 0.8"/>
      </g>
     </g>
     <g id="text_36">
      <!-- 20 -->
      <g transform="translate(524.801136 402.798437) scale(0.1 -0.1)">
       <use xlink:href="#DejaVuSans-32"/>
       <use xlink:href="#DejaVuSans-30" x="63.623047"/>
      </g>
     </g>
    </g>
    <g id="xtick_28">
     <g id="line2d_37">
      <g>
       <use xlink:href="#mfd6a6e47ce" x="629.345455" y="388.2" style="stroke: #000000; stroke-width: 0.8"/>
      </g>
     </g>
     <g id="text_37">
      <!-- 25 -->
      <g transform="translate(622.982955 402.798437) scale(0.1 -0.1)">
       <use xlink:href="#DejaVuSans-32"/>
       <use xlink:href="#DejaVuSans-35" x="63.623047"/>
      </g>
     </g>
    </g>
    <g id="xtick_29">
     <g id="line2d_38">
      <g>
       <use xlink:href="#mfd6a6e47ce" x="727.527273" y="388.2" style="stroke: #000000; stroke-width: 0.8"/>
      </g>
     </g>
     <g id="text_38">
      <!-- 30 -->
      <g transform="translate(721.164773 402.798437) scale(0.1 -0.1)">
       <use xlink:href="#DejaVuSans-33"/>
       <use xlink:href="#DejaVuSans-30" x="63.623047"/>
      </g>
     </g>
    </g>
   </g>
   <g id="matplotlib.axis_8">
    <g id="ytick_7">
     <g id="line2d_39">
      <g>
       <use xlink:href="#m7518915891" x="108" y="386.1" style="stroke: #000000; stroke-width: 0.8"/>
      </g>
     </g>
     <g id="text_39">
      <!-- −0.05 -->
      <g transform="translate(70.354687 389.899219) scale(0.1 -0.1)">
       <use xlink:href="#DejaVuSans-2212"/>
       <use xlink:href="#DejaVuSans-30" x="83.789062"/>
       <use xlink:href="#DejaVuSans-2e" x="147.412109"/>
       <use xlink:href="#DejaVuSans-30" x="179.199219"/>
       <use xlink:href="#DejaVuSans-35" x="242.822266"/>
      </g>
     </g>
    </g>
    <g id="ytick_8">
     <g id="line2d_40">
      <g>
       <use xlink:href="#m7518915891" x="108" y="365.1" style="stroke: #000000; stroke-width: 0.8"/>
      </g>
     </g>
     <g id="text_40">
      <!-- 0.00 -->
      <g transform="translate(78.734375 368.899219) scale(0.1 -0.1)">
       <use xlink:href="#DejaVuSans-30"/>
       <use xlink:href="#DejaVuSans-2e" x="63.623047"/>
       <use xlink:href="#DejaVuSans-30" x="95.410156"/>
       <use xlink:href="#DejaVuSans-30" x="159.033203"/>
      </g>
     </g>
    </g>
    <g id="ytick_9">
     <g id="line2d_41">
      <g>
       <use xlink:href="#m7518915891" x="108" y="344.1" style="stroke: #000000; stroke-width: 0.8"/>
      </g>
     </g>
     <g id="text_41">
      <!-- 0.05 -->
      <g transform="translate(78.734375 347.899219) scale(0.1 -0.1)">
       <use xlink:href="#DejaVuSans-30"/>
       <use xlink:href="#DejaVuSans-2e" x="63.623047"/>
       <use xlink:href="#DejaVuSans-30" x="95.410156"/>
       <use xlink:href="#DejaVuSans-35" x="159.033203"/>
      </g>
     </g>
    </g>
   </g>
   <g id="line2d_42">
    <path d="M 138.436364 365.1 
L 158.072727 365.1 
L 177.709091 365.1 
L 197.345455 365.1 
L 216.981818 365.1 
L 236.618182 365.1 
L 256.254545 365.1 
L 275.890909 365.1 
L 295.527273 365.1 
L 315.163636 365.1 
L 334.8 365.1 
L 354.436364 365.1 
L 374.072727 365.1 
L 393.709091 365.1 
L 413.345455 365.1 
L 432.981818 365.1 
L 452.618182 365.1 
L 472.254545 365.1 
L 491.890909 365.1 
L 511.527273 365.1 
L 531.163636 365.1 
L 550.8 365.1 
L 570.436364 365.1 
L 590.072727 365.1 
L 609.709091 365.1 
L 629.345455 365.1 
L 648.981818 365.1 
L 668.618182 365.1 
L 688.254545 365.1 
L 707.890909 365.1 
L 727.527273 365.1 
L 747.163636 365.1 
" clip-path="url(#p9aa3a01112)" style="fill: none; stroke: #1f77b4; stroke-width: 1.5; stroke-linecap: square"/>
   </g>
   <g id="patch_18">
    <path d="M 108 388.2 
L 108 342 
" style="fill: none; stroke: #000000; stroke-width: 0.8; stroke-linejoin: miter; stroke-linecap: square"/>
   </g>
   <g id="patch_19">
    <path d="M 777.6 388.2 
L 777.6 342 
" style="fill: none; stroke: #000000; stroke-width: 0.8; stroke-linejoin: miter; stroke-linecap: square"/>
   </g>
   <g id="patch_20">
    <path d="M 108 388.2 
L 777.6 388.2 
" style="fill: none; stroke: #000000; stroke-width: 0.8; stroke-linejoin: miter; stroke-linecap: square"/>
   </g>
   <g id="patch_21">
    <path d="M 108 342 
L 777.6 342 
" style="fill: none; stroke: #000000; stroke-width: 0.8; stroke-linejoin: miter; stroke-linecap: square"/>
   </g>
   <g id="text_42">
    <!-- chr22:35750425-35750457:- -->
    <g transform="translate(356.145 336) scale(0.12 -0.12)">
     <use xlink:href="#DejaVuSans-63"/>
     <use xlink:href="#DejaVuSans-68" x="54.980469"/>
     <use xlink:href="#DejaVuSans-72" x="118.359375"/>
     <use xlink:href="#DejaVuSans-32" x="159.472656"/>
     <use xlink:href="#DejaVuSans-32" x="223.095703"/>
     <use xlink:href="#DejaVuSans-3a" x="286.71875"/>
     <use xlink:href="#DejaVuSans-33" x="320.410156"/>
     <use xlink:href="#DejaVuSans-35" x="384.033203"/>
     <use xlink:href="#DejaVuSans-37" x="447.65625"/>
     <use xlink:href="#DejaVuSans-35" x="511.279297"/>
     <use xlink:href="#DejaVuSans-30" x="574.902344"/>
     <use xlink:href="#DejaVuSans-34" x="638.525391"/>
     <use xlink:href="#DejaVuSans-32" x="702.148438"/>
     <use xlink:href="#DejaVuSans-35" x="765.771484"/>
     <use xlink:href="#DejaVuSans-2d" x="829.394531"/>
     <use xlink:href="#DejaVuSans-33" x="865.478516"/>
     <use xlink:href="#DejaVuSans-35" x="929.101562"/>
     <use xlink:href="#DejaVuSans-37" x="992.724609"/>
     <use xlink:href="#DejaVuSans-35" x="1056.347656"/>
     <use xlink:href="#DejaVuSans-30" x="1119.970703"/>
     <use xlink:href="#DejaVuSans-34" x="1183.59375"/>
     <use xlink:href="#DejaVuSans-35" x="1247.216797"/>
     <use xlink:href="#DejaVuSans-37" x="1310.839844"/>
     <use xlink:href="#DejaVuSans-3a" x="1374.462891"/>
     <use xlink:href="#DejaVuSans-2d" x="1408.154297"/>
    </g>
   </g>
  </g>
  <g id="axes_5">
   <g id="patch_22">
    <path d="M 108 480.6 
L 777.6 480.6 
L 777.6 434.4 
L 108 434.4 
z
" style="fill: #ffffff"/>
   </g>
   <g id="matplotlib.axis_9">
    <g id="xtick_30">
     <g id="line2d_43">
      <g>
       <use xlink:href="#mfd6a6e47ce" x="138.436364" y="480.6" style="stroke: #000000; stroke-width: 0.8"/>
      </g>
     </g>
     <g id="text_43">
      <!-- 0 -->
      <g transform="translate(135.255114 495.198438) scale(0.1 -0.1)">
       <use xlink:href="#DejaVuSans-30"/>
      </g>
     </g>
    </g>
    <g id="xtick_31">
     <g id="line2d_44">
      <g>
       <use xlink:href="#mfd6a6e47ce" x="283.371429" y="480.6" style="stroke: #000000; stroke-width: 0.8"/>
      </g>
     </g>
     <g id="text_44">
      <!-- 10 -->
      <g transform="translate(277.008929 495.198438) scale(0.1 -0.1)">
       <use xlink:href="#DejaVuSans-31"/>
       <use xlink:href="#DejaVuSans-30" x="63.623047"/>
      </g>
     </g>
    </g>
    <g id="xtick_32">
     <g id="line2d_45">
      <g>
       <use xlink:href="#mfd6a6e47ce" x="428.306494" y="480.6" style="stroke: #000000; stroke-width: 0.8"/>
      </g>
     </g>
     <g id="text_45">
      <!-- 20 -->
      <g transform="translate(421.943994 495.198438) scale(0.1 -0.1)">
       <use xlink:href="#DejaVuSans-32"/>
       <use xlink:href="#DejaVuSans-30" x="63.623047"/>
      </g>
     </g>
    </g>
    <g id="xtick_33">
     <g id="line2d_46">
      <g>
       <use xlink:href="#mfd6a6e47ce" x="573.241558" y="480.6" style="stroke: #000000; stroke-width: 0.8"/>
      </g>
     </g>
     <g id="text_46">
      <!-- 30 -->
      <g transform="translate(566.879058 495.198438) scale(0.1 -0.1)">
       <use xlink:href="#DejaVuSans-33"/>
       <use xlink:href="#DejaVuSans-30" x="63.623047"/>
      </g>
     </g>
    </g>
    <g id="xtick_34">
     <g id="line2d_47">
      <g>
       <use xlink:href="#mfd6a6e47ce" x="718.176623" y="480.6" style="stroke: #000000; stroke-width: 0.8"/>
      </g>
     </g>
     <g id="text_47">
      <!-- 40 -->
      <g transform="translate(711.814123 495.198438) scale(0.1 -0.1)">
       <use xlink:href="#DejaVuSans-34"/>
       <use xlink:href="#DejaVuSans-30" x="63.623047"/>
      </g>
     </g>
    </g>
   </g>
   <g id="matplotlib.axis_10">
    <g id="ytick_10">
     <g id="line2d_48">
      <g>
       <use xlink:href="#m7518915891" x="108" y="478.5" style="stroke: #000000; stroke-width: 0.8"/>
      </g>
     </g>
     <g id="text_48">
      <!-- −0.05 -->
      <g transform="translate(70.354687 482.299219) scale(0.1 -0.1)">
       <use xlink:href="#DejaVuSans-2212"/>
       <use xlink:href="#DejaVuSans-30" x="83.789062"/>
       <use xlink:href="#DejaVuSans-2e" x="147.412109"/>
       <use xlink:href="#DejaVuSans-30" x="179.199219"/>
       <use xlink:href="#DejaVuSans-35" x="242.822266"/>
      </g>
     </g>
    </g>
    <g id="ytick_11">
     <g id="line2d_49">
      <g>
       <use xlink:href="#m7518915891" x="108" y="457.5" style="stroke: #000000; stroke-width: 0.8"/>
      </g>
     </g>
     <g id="text_49">
      <!-- 0.00 -->
      <g transform="translate(78.734375 461.299219) scale(0.1 -0.1)">
       <use xlink:href="#DejaVuSans-30"/>
       <use xlink:href="#DejaVuSans-2e" x="63.623047"/>
       <use xlink:href="#DejaVuSans-30" x="95.410156"/>
       <use xlink:href="#DejaVuSans-30" x="159.033203"/>
      </g>
     </g>
    </g>
    <g id="ytick_12">
     <g id="line2d_50">
      <g>
       <use xlink:href="#m7518915891" x="108" y="436.5" style="stroke: #000000; stroke-width: 0.8"/>
      </g>
     </g>
     <g id="text_50">
      <!-- 0.05 -->
      <g transform="translate(78.734375 440.299219) scale(0.1 -0.1)">
       <use xlink:href="#DejaVuSans-30"/>
       <use xlink:href="#DejaVuSans-2e" x="63.623047"/>
       <use xlink:href="#DejaVuSans-30" x="95.410156"/>
       <use xlink:href="#DejaVuSans-35" x="159.033203"/>
      </g>
     </g>
    </g>
   </g>
   <g id="line2d_51">
    <path d="M 138.436364 457.5 
L 152.92987 457.5 
L 167.423377 457.5 
L 181.916883 457.5 
L 196.41039 457.5 
L 210.903896 457.5 
L 225.397403 457.5 
L 239.890909 457.5 
L 254.384416 457.5 
L 268.877922 457.5 
L 283.371429 457.5 
L 297.864935 457.5 
L 312.358442 457.5 
L 326.851948 457.5 
L 341.345455 457.5 
L 355.838961 457.5 
L 370.332468 457.5 
L 384.825974 457.5 
L 399.319481 457.5 
L 413.812987 457.5 
L 428.306494 457.5 
L 442.8 457.5 
L 457.293506 457.5 
L 471.787013 457.5 
L 486.280519 457.5 
L 500.774026 457.5 
L 515.267532 457.5 
L 529.761039 457.5 
L 544.254545 457.5 
L 558.748052 457.5 
L 573.241558 457.5 
L 587.735065 457.5 
L 602.228571 457.5 
L 616.722078 457.5 
L 631.215584 457.5 
L 645.709091 457.5 
L 660.202597 457.5 
L 674.696104 457.5 
L 689.18961 457.5 
L 703.683117 457.5 
L 718.176623 457.5 
L 732.67013 457.5 
L 747.163636 457.5 
" clip-path="url(#pdf5cb2f0ce)" style="fill: none; stroke: #1f77b4; stroke-width: 1.5; stroke-linecap: square"/>
   </g>
   <g id="patch_23">
    <path d="M 108 480.6 
L 108 434.4 
" style="fill: none; stroke: #000000; stroke-width: 0.8; stroke-linejoin: miter; stroke-linecap: square"/>
   </g>
   <g id="patch_24">
    <path d="M 777.6 480.6 
L 777.6 434.4 
" style="fill: none; stroke: #000000; stroke-width: 0.8; stroke-linejoin: miter; stroke-linecap: square"/>
   </g>
   <g id="patch_25">
    <path d="M 108 480.6 
L 777.6 480.6 
" style="fill: none; stroke: #000000; stroke-width: 0.8; stroke-linejoin: miter; stroke-linecap: square"/>
   </g>
   <g id="patch_26">
    <path d="M 108 434.4 
L 777.6 434.4 
" style="fill: none; stroke: #000000; stroke-width: 0.8; stroke-linejoin: miter; stroke-linecap: square"/>
   </g>
   <g id="text_51">
    <!-- chr22:35752612-35752655:- -->
    <g transform="translate(356.145 428.4) scale(0.12 -0.12)">
     <use xlink:href="#DejaVuSans-63"/>
     <use xlink:href="#DejaVuSans-68" x="54.980469"/>
     <use xlink:href="#DejaVuSans-72" x="118.359375"/>
     <use xlink:href="#DejaVuSans-32" x="159.472656"/>
     <use xlink:href="#DejaVuSans-32" x="223.095703"/>
     <use xlink:href="#DejaVuSans-3a" x="286.71875"/>
     <use xlink:href="#DejaVuSans-33" x="320.410156"/>
     <use xlink:href="#DejaVuSans-35" x="384.033203"/>
     <use xlink:href="#DejaVuSans-37" x="447.65625"/>
     <use xlink:href="#DejaVuSans-35" x="511.279297"/>
     <use xlink:href="#DejaVuSans-32" x="574.902344"/>
     <use xlink:href="#DejaVuSans-36" x="638.525391"/>
     <use xlink:href="#DejaVuSans-31" x="702.148438"/>
     <use xlink:href="#DejaVuSans-32" x="765.771484"/>
     <use xlink:href="#DejaVuSans-2d" x="829.394531"/>
     <use xlink:href="#DejaVuSans-33" x="865.478516"/>
     <use xlink:href="#DejaVuSans-35" x="929.101562"/>
     <use xlink:href="#DejaVuSans-37" x="992.724609"/>
     <use xlink:href="#DejaVuSans-35" x="1056.347656"/>
     <use xlink:href="#DejaVuSans-32" x="1119.970703"/>
     <use xlink:href="#DejaVuSans-36" x="1183.59375"/>
     <use xlink:href="#DejaVuSans-35" x="1247.216797"/>
     <use xlink:href="#DejaVuSans-35" x="1310.839844"/>
     <use xlink:href="#DejaVuSans-3a" x="1374.462891"/>
     <use xlink:href="#DejaVuSans-2d" x="1408.154297"/>
    </g>
   </g>
  </g>
  <g id="text_52">
   <!-- Overlapping LARP6.CTRL_IN1.umi.r1.fq.genome-mapped.sorted.bam with 5 features -->
   <g transform="translate(178.109063 19.918125) scale(0.12 -0.12)">
    <defs>
     <path id="DejaVuSans-4f" d="M 2522 4238 
Q 1834 4238 1429 3725 
Q 1025 3213 1025 2328 
Q 1025 1447 1429 934 
Q 1834 422 2522 422 
Q 3209 422 3611 934 
Q 4013 1447 4013 2328 
Q 4013 3213 3611 3725 
Q 3209 4238 2522 4238 
z
M 2522 4750 
Q 3503 4750 4090 4092 
Q 4678 3434 4678 2328 
Q 4678 1225 4090 567 
Q 3503 -91 2522 -91 
Q 1538 -91 948 565 
Q 359 1222 359 2328 
Q 359 3434 948 4092 
Q 1538 4750 2522 4750 
z
" transform="scale(0.015625)"/>
     <path id="DejaVuSans-76" d="M 191 3500 
L 800 3500 
L 1894 563 
L 2988 3500 
L 3597 3500 
L 2284 0 
L 1503 0 
L 191 3500 
z
" transform="scale(0.015625)"/>
     <path id="DejaVuSans-65" d="M 3597 1894 
L 3597 1613 
L 953 1613 
Q 991 1019 1311 708 
Q 1631 397 2203 397 
Q 2534 397 2845 478 
Q 3156 559 3463 722 
L 3463 178 
Q 3153 47 2828 -22 
Q 2503 -91 2169 -91 
Q 1331 -91 842 396 
Q 353 884 353 1716 
Q 353 2575 817 3079 
Q 1281 3584 2069 3584 
Q 2775 3584 3186 3129 
Q 3597 2675 3597 1894 
z
M 3022 2063 
Q 3016 2534 2758 2815 
Q 2500 3097 2075 3097 
Q 1594 3097 1305 2825 
Q 1016 2553 972 2059 
L 3022 2063 
z
" transform="scale(0.015625)"/>
     <path id="DejaVuSans-6c" d="M 603 4863 
L 1178 4863 
L 1178 0 
L 603 0 
L 603 4863 
z
" transform="scale(0.015625)"/>
     <path id="DejaVuSans-61" d="M 2194 1759 
Q 1497 1759 1228 1600 
Q 959 1441 959 1056 
Q 959 750 1161 570 
Q 1363 391 1709 391 
Q 2188 391 2477 730 
Q 2766 1069 2766 1631 
L 2766 1759 
L 2194 1759 
z
M 3341 1997 
L 3341 0 
L 2766 0 
L 2766 531 
Q 2569 213 2275 61 
Q 1981 -91 1556 -91 
Q 1019 -91 701 211 
Q 384 513 384 1019 
Q 384 1609 779 1909 
Q 1175 2209 1959 2209 
L 2766 2209 
L 2766 2266 
Q 2766 2663 2505 2880 
Q 2244 3097 1772 3097 
Q 1472 3097 1187 3025 
Q 903 2953 641 2809 
L 641 3341 
Q 956 3463 1253 3523 
Q 1550 3584 1831 3584 
Q 2591 3584 2966 3190 
Q 3341 2797 3341 1997 
z
" transform="scale(0.015625)"/>
     <path id="DejaVuSans-70" d="M 1159 525 
L 1159 -1331 
L 581 -1331 
L 581 3500 
L 1159 3500 
L 1159 2969 
Q 1341 3281 1617 3432 
Q 1894 3584 2278 3584 
Q 2916 3584 3314 3078 
Q 3713 2572 3713 1747 
Q 3713 922 3314 415 
Q 2916 -91 2278 -91 
Q 1894 -91 1617 61 
Q 1341 213 1159 525 
z
M 3116 1747 
Q 3116 2381 2855 2742 
Q 2594 3103 2138 3103 
Q 1681 3103 1420 2742 
Q 1159 2381 1159 1747 
Q 1159 1113 1420 752 
Q 1681 391 2138 391 
Q 2594 391 2855 752 
Q 3116 1113 3116 1747 
z
" transform="scale(0.015625)"/>
     <path id="DejaVuSans-69" d="M 603 3500 
L 1178 3500 
L 1178 0 
L 603 0 
L 603 3500 
z
M 603 4863 
L 1178 4863 
L 1178 4134 
L 603 4134 
L 603 4863 
z
" transform="scale(0.015625)"/>
     <path id="DejaVuSans-6e" d="M 3513 2113 
L 3513 0 
L 2938 0 
L 2938 2094 
Q 2938 2591 2744 2837 
Q 2550 3084 2163 3084 
Q 1697 3084 1428 2787 
Q 1159 2491 1159 1978 
L 1159 0 
L 581 0 
L 581 3500 
L 1159 3500 
L 1159 2956 
Q 1366 3272 1645 3428 
Q 1925 3584 2291 3584 
Q 2894 3584 3203 3211 
Q 3513 2838 3513 2113 
z
" transform="scale(0.015625)"/>
     <path id="DejaVuSans-67" d="M 2906 1791 
Q 2906 2416 2648 2759 
Q 2391 3103 1925 3103 
Q 1463 3103 1205 2759 
Q 947 2416 947 1791 
Q 947 1169 1205 825 
Q 1463 481 1925 481 
Q 2391 481 2648 825 
Q 2906 1169 2906 1791 
z
M 3481 434 
Q 3481 -459 3084 -895 
Q 2688 -1331 1869 -1331 
Q 1566 -1331 1297 -1286 
Q 1028 -1241 775 -1147 
L 775 -588 
Q 1028 -725 1275 -790 
Q 1522 -856 1778 -856 
Q 2344 -856 2625 -561 
Q 2906 -266 2906 331 
L 2906 616 
Q 2728 306 2450 153 
Q 2172 0 1784 0 
Q 1141 0 747 490 
Q 353 981 353 1791 
Q 353 2603 747 3093 
Q 1141 3584 1784 3584 
Q 2172 3584 2450 3431 
Q 2728 3278 2906 2969 
L 2906 3500 
L 3481 3500 
L 3481 434 
z
" transform="scale(0.015625)"/>
     <path id="DejaVuSans-20" transform="scale(0.015625)"/>
     <path id="DejaVuSans-4c" d="M 628 4666 
L 1259 4666 
L 1259 531 
L 3531 531 
L 3531 0 
L 628 0 
L 628 4666 
z
" transform="scale(0.015625)"/>
     <path id="DejaVuSans-41" d="M 2188 4044 
L 1331 1722 
L 3047 1722 
L 2188 4044 
z
M 1831 4666 
L 2547 4666 
L 4325 0 
L 3669 0 
L 3244 1197 
L 1141 1197 
L 716 0 
L 50 0 
L 1831 4666 
z
" transform="scale(0.015625)"/>
     <path id="DejaVuSans-52" d="M 2841 2188 
Q 3044 2119 3236 1894 
Q 3428 1669 3622 1275 
L 4263 0 
L 3584 0 
L 2988 1197 
Q 2756 1666 2539 1819 
Q 2322 1972 1947 1972 
L 1259 1972 
L 1259 0 
L 628 0 
L 628 4666 
L 2053 4666 
Q 2853 4666 3247 4331 
Q 3641 3997 3641 3322 
Q 3641 2881 3436 2590 
Q 3231 2300 2841 2188 
z
M 1259 4147 
L 1259 2491 
L 2053 2491 
Q 2509 2491 2742 2702 
Q 2975 2913 2975 3322 
Q 2975 3731 2742 3939 
Q 2509 4147 2053 4147 
L 1259 4147 
z
" transform="scale(0.015625)"/>
     <path id="DejaVuSans-50" d="M 1259 4147 
L 1259 2394 
L 2053 2394 
Q 2494 2394 2734 2622 
Q 2975 2850 2975 3272 
Q 2975 3691 2734 3919 
Q 2494 4147 2053 4147 
L 1259 4147 
z
M 628 4666 
L 2053 4666 
Q 2838 4666 3239 4311 
Q 3641 3956 3641 3272 
Q 3641 2581 3239 2228 
Q 2838 1875 2053 1875 
L 1259 1875 
L 1259 0 
L 628 0 
L 628 4666 
z
" transform="scale(0.015625)"/>
     <path id="DejaVuSans-43" d="M 4122 4306 
L 4122 3641 
Q 3803 3938 3442 4084 
Q 3081 4231 2675 4231 
Q 1875 4231 1450 3742 
Q 1025 3253 1025 2328 
Q 1025 1406 1450 917 
Q 1875 428 2675 428 
Q 3081 428 3442 575 
Q 3803 722 4122 1019 
L 4122 359 
Q 3791 134 3420 21 
Q 3050 -91 2638 -91 
Q 1578 -91 968 557 
Q 359 1206 359 2328 
Q 359 3453 968 4101 
Q 1578 4750 2638 4750 
Q 3056 4750 3426 4639 
Q 3797 4528 4122 4306 
z
" transform="scale(0.015625)"/>
     <path id="DejaVuSans-54" d="M -19 4666 
L 3928 4666 
L 3928 4134 
L 2272 4134 
L 2272 0 
L 1638 0 
L 1638 4134 
L -19 4134 
L -19 4666 
z
" transform="scale(0.015625)"/>
     <path id="DejaVuSans-5f" d="M 3263 -1063 
L 3263 -1509 
L -63 -1509 
L -63 -1063 
L 3263 -1063 
z
" transform="scale(0.015625)"/>
     <path id="DejaVuSans-49" d="M 628 4666 
L 1259 4666 
L 1259 0 
L 628 0 
L 628 4666 
z
" transform="scale(0.015625)"/>
     <path id="DejaVuSans-4e" d="M 628 4666 
L 1478 4666 
L 3547 763 
L 3547 4666 
L 4159 4666 
L 4159 0 
L 3309 0 
L 1241 3903 
L 1241 0 
L 628 0 
L 628 4666 
z
" transform="scale(0.015625)"/>
     <path id="DejaVuSans-75" d="M 544 1381 
L 544 3500 
L 1119 3500 
L 1119 1403 
Q 1119 906 1312 657 
Q 1506 409 1894 409 
Q 2359 409 2629 706 
Q 2900 1003 2900 1516 
L 2900 3500 
L 3475 3500 
L 3475 0 
L 2900 0 
L 2900 538 
Q 2691 219 2414 64 
Q 2138 -91 1772 -91 
Q 1169 -91 856 284 
Q 544 659 544 1381 
z
M 1991 3584 
L 1991 3584 
z
" transform="scale(0.015625)"/>
     <path id="DejaVuSans-6d" d="M 3328 2828 
Q 3544 3216 3844 3400 
Q 4144 3584 4550 3584 
Q 5097 3584 5394 3201 
Q 5691 2819 5691 2113 
L 5691 0 
L 5113 0 
L 5113 2094 
Q 5113 2597 4934 2840 
Q 4756 3084 4391 3084 
Q 3944 3084 3684 2787 
Q 3425 2491 3425 1978 
L 3425 0 
L 2847 0 
L 2847 2094 
Q 2847 2600 2669 2842 
Q 2491 3084 2119 3084 
Q 1678 3084 1418 2786 
Q 1159 2488 1159 1978 
L 1159 0 
L 581 0 
L 581 3500 
L 1159 3500 
L 1159 2956 
Q 1356 3278 1631 3431 
Q 1906 3584 2284 3584 
Q 2666 3584 2933 3390 
Q 3200 3197 3328 2828 
z
" transform="scale(0.015625)"/>
     <path id="DejaVuSans-66" d="M 2375 4863 
L 2375 4384 
L 1825 4384 
Q 1516 4384 1395 4259 
Q 1275 4134 1275 3809 
L 1275 3500 
L 2222 3500 
L 2222 3053 
L 1275 3053 
L 1275 0 
L 697 0 
L 697 3053 
L 147 3053 
L 147 3500 
L 697 3500 
L 697 3744 
Q 697 4328 969 4595 
Q 1241 4863 1831 4863 
L 2375 4863 
z
" transform="scale(0.015625)"/>
     <path id="DejaVuSans-71" d="M 947 1747 
Q 947 1113 1208 752 
Q 1469 391 1925 391 
Q 2381 391 2643 752 
Q 2906 1113 2906 1747 
Q 2906 2381 2643 2742 
Q 2381 3103 1925 3103 
Q 1469 3103 1208 2742 
Q 947 2381 947 1747 
z
M 2906 525 
Q 2725 213 2448 61 
Q 2172 -91 1784 -91 
Q 1150 -91 751 415 
Q 353 922 353 1747 
Q 353 2572 751 3078 
Q 1150 3584 1784 3584 
Q 2172 3584 2448 3432 
Q 2725 3281 2906 2969 
L 2906 3500 
L 3481 3500 
L 3481 -1331 
L 2906 -1331 
L 2906 525 
z
" transform="scale(0.015625)"/>
     <path id="DejaVuSans-6f" d="M 1959 3097 
Q 1497 3097 1228 2736 
Q 959 2375 959 1747 
Q 959 1119 1226 758 
Q 1494 397 1959 397 
Q 2419 397 2687 759 
Q 2956 1122 2956 1747 
Q 2956 2369 2687 2733 
Q 2419 3097 1959 3097 
z
M 1959 3584 
Q 2709 3584 3137 3096 
Q 3566 2609 3566 1747 
Q 3566 888 3137 398 
Q 2709 -91 1959 -91 
Q 1206 -91 779 398 
Q 353 888 353 1747 
Q 353 2609 779 3096 
Q 1206 3584 1959 3584 
z
" transform="scale(0.015625)"/>
     <path id="DejaVuSans-64" d="M 2906 2969 
L 2906 4863 
L 3481 4863 
L 3481 0 
L 2906 0 
L 2906 525 
Q 2725 213 2448 61 
Q 2172 -91 1784 -91 
Q 1150 -91 751 415 
Q 353 922 353 1747 
Q 353 2572 751 3078 
Q 1150 3584 1784 3584 
Q 2172 3584 2448 3432 
Q 2725 3281 2906 2969 
z
M 947 1747 
Q 947 1113 1208 752 
Q 1469 391 1925 391 
Q 2381 391 2643 752 
Q 2906 1113 2906 1747 
Q 2906 2381 2643 2742 
Q 2381 3103 1925 3103 
Q 1469 3103 1208 2742 
Q 947 2381 947 1747 
z
" transform="scale(0.015625)"/>
     <path id="DejaVuSans-73" d="M 2834 3397 
L 2834 2853 
Q 2591 2978 2328 3040 
Q 2066 3103 1784 3103 
Q 1356 3103 1142 2972 
Q 928 2841 928 2578 
Q 928 2378 1081 2264 
Q 1234 2150 1697 2047 
L 1894 2003 
Q 2506 1872 2764 1633 
Q 3022 1394 3022 966 
Q 3022 478 2636 193 
Q 2250 -91 1575 -91 
Q 1294 -91 989 -36 
Q 684 19 347 128 
L 347 722 
Q 666 556 975 473 
Q 1284 391 1588 391 
Q 1994 391 2212 530 
Q 2431 669 2431 922 
Q 2431 1156 2273 1281 
Q 2116 1406 1581 1522 
L 1381 1569 
Q 847 1681 609 1914 
Q 372 2147 372 2553 
Q 372 3047 722 3315 
Q 1072 3584 1716 3584 
Q 2034 3584 2315 3537 
Q 2597 3491 2834 3397 
z
" transform="scale(0.015625)"/>
     <path id="DejaVuSans-74" d="M 1172 4494 
L 1172 3500 
L 2356 3500 
L 2356 3053 
L 1172 3053 
L 1172 1153 
Q 1172 725 1289 603 
Q 1406 481 1766 481 
L 2356 481 
L 2356 0 
L 1766 0 
Q 1100 0 847 248 
Q 594 497 594 1153 
L 594 3053 
L 172 3053 
L 172 3500 
L 594 3500 
L 594 4494 
L 1172 4494 
z
" transform="scale(0.015625)"/>
     <path id="DejaVuSans-62" d="M 3116 1747 
Q 3116 2381 2855 2742 
Q 2594 3103 2138 3103 
Q 1681 3103 1420 2742 
Q 1159 2381 1159 1747 
Q 1159 1113 1420 752 
Q 1681 391 2138 391 
Q 2594 391 2855 752 
Q 3116 1113 3116 1747 
z
M 1159 2969 
Q 1341 3281 1617 3432 
Q 1894 3584 2278 3584 
Q 2916 3584 3314 3078 
Q 3713 2572 3713 1747 
Q 3713 922 3314 415 
Q 2916 -91 2278 -91 
Q 1894 -91 1617 61 
Q 1341 213 1159 525 
L 1159 0 
L 581 0 
L 581 4863 
L 1159 4863 
L 1159 2969 
z
" transform="scale(0.015625)"/>
     <path id="DejaVuSans-77" d="M 269 3500 
L 844 3500 
L 1563 769 
L 2278 3500 
L 2956 3500 
L 3675 769 
L 4391 3500 
L 4966 3500 
L 4050 0 
L 3372 0 
L 2619 2869 
L 1863 0 
L 1184 0 
L 269 3500 
z
" transform="scale(0.015625)"/>
    </defs>
    <use xlink:href="#DejaVuSans-4f"/>
    <use xlink:href="#DejaVuSans-76" x="78.710938"/>
    <use xlink:href="#DejaVuSans-65" x="137.890625"/>
    <use xlink:href="#DejaVuSans-72" x="199.414062"/>
    <use xlink:href="#DejaVuSans-6c" x="240.527344"/>
    <use xlink:href="#DejaVuSans-61" x="268.310547"/>
    <use xlink:href="#DejaVuSans-70" x="329.589844"/>
    <use xlink:href="#DejaVuSans-70" x="393.066406"/>
    <use xlink:href="#DejaVuSans-69" x="456.542969"/>
    <use xlink:href="#DejaVuSans-6e" x="484.326172"/>
    <use xlink:href="#DejaVuSans-67" x="547.705078"/>
    <use xlink:href="#DejaVuSans-20" x="611.181641"/>
    <use xlink:href="#DejaVuSans-4c" x="642.96875"/>
    <use xlink:href="#DejaVuSans-41" x="700.931641"/>
    <use xlink:href="#DejaVuSans-52" x="769.339844"/>
    <use xlink:href="#DejaVuSans-50" x="838.822266"/>
    <use xlink:href="#DejaVuSans-36" x="899.125"/>
    <use xlink:href="#DejaVuSans-2e" x="962.748047"/>
    <use xlink:href="#DejaVuSans-43" x="994.535156"/>
    <use xlink:href="#DejaVuSans-54" x="1064.359375"/>
    <use xlink:href="#DejaVuSans-52" x="1125.443359"/>
    <use xlink:href="#DejaVuSans-4c" x="1194.925781"/>
    <use xlink:href="#DejaVuSans-5f" x="1250.638672"/>
    <use xlink:href="#DejaVuSans-49" x="1300.638672"/>
    <use xlink:href="#DejaVuSans-4e" x="1330.130859"/>
    <use xlink:href="#DejaVuSans-31" x="1404.935547"/>
    <use xlink:href="#DejaVuSans-2e" x="1468.558594"/>
    <use xlink:href="#DejaVuSans-75" x="1500.345703"/>
    <use xlink:href="#DejaVuSans-6d" x="1563.724609"/>
    <use xlink:href="#DejaVuSans-69" x="1661.136719"/>
    <use xlink:href="#DejaVuSans-2e" x="1688.919922"/>
    <use xlink:href="#DejaVuSans-72" x="1720.707031"/>
    <use xlink:href="#DejaVuSans-31" x="1761.820312"/>
    <use xlink:href="#DejaVuSans-2e" x="1825.443359"/>
    <use xlink:href="#DejaVuSans-66" x="1857.230469"/>
    <use xlink:href="#DejaVuSans-71" x="1892.435547"/>
    <use xlink:href="#DejaVuSans-2e" x="1955.912109"/>
    <use xlink:href="#DejaVuSans-67" x="1987.699219"/>
    <use xlink:href="#DejaVuSans-65" x="2051.175781"/>
    <use xlink:href="#DejaVuSans-6e" x="2112.699219"/>
    <use xlink:href="#DejaVuSans-6f" x="2176.078125"/>
    <use xlink:href="#DejaVuSans-6d" x="2237.259766"/>
    <use xlink:href="#DejaVuSans-65" x="2334.671875"/>
    <use xlink:href="#DejaVuSans-2d" x="2396.195312"/>
    <use xlink:href="#DejaVuSans-6d" x="2432.279297"/>
    <use xlink:href="#DejaVuSans-61" x="2529.691406"/>
    <use xlink:href="#DejaVuSans-70" x="2590.970703"/>
    <use xlink:href="#DejaVuSans-70" x="2654.447266"/>
    <use xlink:href="#DejaVuSans-65" x="2717.923828"/>
    <use xlink:href="#DejaVuSans-64" x="2779.447266"/>
    <use xlink:href="#DejaVuSans-2e" x="2842.923828"/>
    <use xlink:href="#DejaVuSans-73" x="2874.710938"/>
    <use xlink:href="#DejaVuSans-6f" x="2926.810547"/>
    <use xlink:href="#DejaVuSans-72" x="2987.992188"/>
    <use xlink:href="#DejaVuSans-74" x="3029.105469"/>
    <use xlink:href="#DejaVuSans-65" x="3068.314453"/>
    <use xlink:href="#DejaVuSans-64" x="3129.837891"/>
    <use xlink:href="#DejaVuSans-2e" x="3193.314453"/>
    <use xlink:href="#DejaVuSans-62" x="3225.101562"/>
    <use xlink:href="#DejaVuSans-61" x="3288.578125"/>
    <use xlink:href="#DejaVuSans-6d" x="3349.857422"/>
    <use xlink:href="#DejaVuSans-20" x="3447.269531"/>
    <use xlink:href="#DejaVuSans-77" x="3479.056641"/>
    <use xlink:href="#DejaVuSans-69" x="3560.84375"/>
    <use xlink:href="#DejaVuSans-74" x="3588.626953"/>
    <use xlink:href="#DejaVuSans-68" x="3627.835938"/>
    <use xlink:href="#DejaVuSans-20" x="3691.214844"/>
    <use xlink:href="#DejaVuSans-35" x="3723.001953"/>
    <use xlink:href="#DejaVuSans-20" x="3786.625"/>
    <use xlink:href="#DejaVuSans-66" x="3818.412109"/>
    <use xlink:href="#DejaVuSans-65" x="3853.617188"/>
    <use xlink:href="#DejaVuSans-61" x="3915.140625"/>
    <use xlink:href="#DejaVuSans-74" x="3976.419922"/>
    <use xlink:href="#DejaVuSans-75" x="4015.628906"/>
    <use xlink:href="#DejaVuSans-72" x="4079.007812"/>
    <use xlink:href="#DejaVuSans-65" x="4117.871094"/>
    <use xlink:href="#DejaVuSans-73" x="4179.394531"/>
   </g>
  </g>
 </g>
 <defs>
  <clipPath id="p7137ec3366">
   <rect x="108" y="64.8" width="669.6" height="46.2"/>
  </clipPath>
  <clipPath id="p8eb40448c9">
   <rect x="108" y="157.2" width="669.6" height="46.2"/>
  </clipPath>
  <clipPath id="p29c9a0746e">
   <rect x="108" y="249.6" width="669.6" height="46.2"/>
  </clipPath>
  <clipPath id="p9aa3a01112">
   <rect x="108" y="342" width="669.6" height="46.2"/>
  </clipPath>
  <clipPath id="pdf5cb2f0ce">
   <rect x="108" y="434.4" width="669.6" height="46.2"/>
  </clipPath>
 </defs>
</svg>
